# xmcd CD database file generated by MAGIX-FreeDB-PlayR v2.0beta1
# 
# Track frame offsets:
#      150
#      18126
#      44253
#      70063
#      86001
#      106533
#      128678
#      147356
#      168556
#      189863
#      210458
# 
# Disc length: 3088 seconds
# 
# Revision: 19 
# Processed by: cddbd v1.5.2PL0 Copyright (c) Steve Scherf et al.
# Submitted via: MAGIX-FreeDB-PlayR v2.0beta1
# 
DISCID=860c0e0b
DTITLE=Zucchero - Blue Sugar
DYEAR=1998
DGENRE=Blues
TTITLE0=Zucchero - U Make Me Feel Loved
TTITLE1=Zucchero - Blue
TTITLE2=Zucchero - Thin Air
TTITLE3=Zucchero - If Not Tonight
TTITLE4=Zucchero - Back 2 U
TTITLE5=Zucchero - Donkey Tonkey
TTITLE6=Zucchero - (Temporaneamente) X Sempre Tuo
TTITLE7=Zucchero - More Than This
TTITLE8=Zucchero - Karma, Stai Kkalma
TTITLE9=Zucchero - I Wish You Love
TTITLE10=Zucchero - I Tempi Cambieranno
EXTD=YEAR: 1998
EXTT0=
EXTT1=
EXTT2=
EXTT3=
EXTT4=
EXTT5=
EXTT6=
EXTT7=
EXTT8=
EXTT9=
EXTT10=
PLAYORDER=
